<svg version="1.1" xmlns="http://www.w3.org/2000/svg" viewBox="0 0 526.8112780335775 649.1373814175184" width="526.8112780335775" height="649.1373814175184">
  <!-- svg-source:excalidraw -->
  
  <defs>
    <style class="style-fonts">
      @font-face {
        font-family: "Virgil";
        src: url("https://excalidraw.com/Virgil.woff2");
      }
      @font-face {
        font-family: "Cascadia";
        src: url("https://excalidraw.com/Cascadia.woff2");
      }
    </style>
    
  </defs>
  <rect x="0" y="0" width="526.8112780335775" height="649.1373814175184" fill="#ffffff"></rect><g stroke-linecap="round"><g transform="translate(13.108066988205564 20.999984741210966) rotate(0 1.9415549597563313 309.1342492660042)"><path d="M-0.08 0.77 C0.69 103.7, 4.56 514.27, 5.47 616.85 M-1.59 0.13 C-0.97 103.28, 3.85 515.32, 4.94 618.14" stroke="#1e1e1e" stroke-width="1" fill="none"></path></g></g><mask></mask><g stroke-linecap="round"><g transform="translate(11.108066988205564 31.666656494140625) rotate(0 162.72457135010973 -0.8816168844699774)"><path d="M0.23 0.51 C54.74 0.1, 272.45 -1.74, 326.56 -2.28 M-1.11 -0.26 C53.33 -0.52, 271.19 -0.64, 325.9 -0.89" stroke="#1e1e1e" stroke-width="1" fill="none"></path></g></g><mask></mask><g transform="translate(352.4413799764868 10) rotate(0 76.46796417236328 17.5)"><text x="0" y="0" font-family="Virgil, Segoe UI Emoji" font-size="28px" fill="#1e1e1e" text-anchor="start" style="white-space: pre;" direction="ltr" dominant-baseline="text-before-edge">Conference1</text></g><g stroke-linecap="round"><g transform="translate(48.441379976486814 31.666656494140625) rotate(0 -0.9104392455860193 168.55640896114986)"><path d="M-0.2 -0.18 C-0.37 56.15, 0.12 282.13, -0.03 338.43 M-1.77 -1.32 C-2.13 54.61, -0.59 279.86, -0.64 336.54" stroke="#1e1e1e" stroke-width="1" fill="none"></path></g></g><mask></mask><g stroke-linecap="round"><g transform="translate(49.774753999924314 82.99998474121094) rotate(0 70.52736841056958 0.31096884715765327)"><path d="M0.06 0.87 C23.9 0.82, 118.66 -0.35, 142.43 -0.38 M-1.37 0.28 C22.34 0.42, 117.48 1.22, 141.35 0.95" stroke="#1e1e1e" stroke-width="1" fill="none"></path></g></g><mask></mask><g transform="translate(205.10806698820556 68.00001525878906) rotate(0 23.839981079101562 12.5)"><text x="0" y="0" font-family="Virgil, Segoe UI Emoji" font-size="20px" fill="#1e1e1e" text-anchor="start" style="white-space: pre;" direction="ltr" dominant-baseline="text-before-edge">year1</text></g><g stroke-linecap="round"><g transform="translate(48.91401156591712 120.68898537647516) rotate(0 32.67378568053243 -0.24267234206200783)"><path d="M1.01 -1.16 C11.74 -1.11, 53.55 0.55, 64.34 0.67" stroke="#1971c2" stroke-width="1.5" fill="none" stroke-dasharray="8 9"></path></g></g><mask></mask><g transform="translate(204.26826901457275 307.16664123535156) rotate(0 28.249977111816406 12.5)"><text x="0" y="0" font-family="Virgil, Segoe UI Emoji" font-size="20px" fill="#1e1e1e" text-anchor="start" style="white-space: pre;" direction="ltr" dominant-baseline="text-before-edge">year2</text></g><g transform="translate(123.10800595304931 111.83335876464844) rotate(0 23.207977294921875 10)"><text x="0" y="0" font-family="Virgil, Segoe UI Emoji" font-size="16px" fill="#1971c2" text-anchor="start" style="white-space: pre;" direction="ltr" dominant-baseline="text-before-edge">paper1</text></g><g stroke-linecap="round"><g transform="translate(50.29803106699853 169.52229836475635) rotate(0 32.52210797667499 -0.6798796150659427)"><path d="M-0.25 -0.2 C10.8 -0.33, 54.39 -1.24, 65.29 -1.15" stroke="#2f9e44" stroke-width="1.5" fill="none" stroke-dasharray="8 9"></path></g></g><mask></mask><g transform="translate(124.49202545413061 160.6666717529297) rotate(0 26.735977172851562 10)"><text x="0" y="0" font-family="Virgil, Segoe UI Emoji" font-size="16px" fill="#2f9e44" text-anchor="start" style="white-space: pre;" direction="ltr" dominant-baseline="text-before-edge">paper2</text></g><g stroke-linecap="round"><g transform="translate(51.96471807871728 267.8556113530376) rotate(0 32.59325017333032 0.2278595030307713)"><path d="M-0.54 1.16 C10.43 0.9, 54.7 -0.64, 65.72 -0.71" stroke="#f08c00" stroke-width="1.5" fill="none" stroke-dasharray="8 9"></path></g></g><mask></mask><g transform="translate(126.15871246584936 258.99998474121094) rotate(0 29.327972412109375 10)"><text x="0" y="0" font-family="Virgil, Segoe UI Emoji" font-size="16px" fill="#f08c00" text-anchor="start" style="white-space: pre;" direction="ltr" dominant-baseline="text-before-edge">paper18</text></g><g transform="translate(79.44137997648681 215.99998474121094) rotate(89.19275751076984 19.343955993652344 10)"><text x="0" y="0" font-family="Virgil, Segoe UI Emoji" font-size="16px" fill="#1e1e1e" text-anchor="start" style="white-space: pre;" direction="ltr" dominant-baseline="text-before-edge">... ....</text></g><g stroke-linecap="round"><g transform="translate(50.91401156591712 317.6890158940533) rotate(0 71.79732095413846 0.33613720536231995)"><path d="M0.72 1.16 C24.32 0.9, 118.16 -0.28, 141.73 -0.48 M-0.36 0.72 C23.6 1.14, 120.37 0.71, 143.95 0.8" stroke="#1e1e1e" stroke-width="1" fill="none"></path></g></g><mask></mask><g stroke-linecap="round"><g transform="translate(10.194044757210463 402.31855266744003) rotate(0 163.88971955948512 -1.3319063127041204)"><path d="M1.19 0.27 C55.5 -0.09, 271.09 -2.51, 325.16 -2.93 M0.35 -0.64 C55.11 -0.8, 273.38 -1.81, 327.43 -1.88" stroke="#1e1e1e" stroke-width="1" fill="none"></path></g></g><mask></mask><g transform="translate(351.5273577454916 380.6518961732994) rotate(0 82.64196014404297 17.5)"><text x="0" y="0" font-family="Virgil, Segoe UI Emoji" font-size="28px" fill="#1e1e1e" text-anchor="start" style="white-space: pre;" direction="ltr" dominant-baseline="text-before-edge">Conference2</text></g><g stroke-linecap="round"><g transform="translate(48.8607317689291 453.65188091451034) rotate(0 71.83877889592662 -0.31157692399341386)"><path d="M-0.39 -0.28 C23.38 0.02, 117.84 0.64, 141.81 0.85 M1.6 -1.47 C25.83 -1.42, 120.49 -0.93, 144.07 -0.83" stroke="#1e1e1e" stroke-width="1" fill="none"></path></g></g><mask></mask><g transform="translate(204.19404475721035 438.65191143208847) rotate(0 23.839981079101562 12.5)"><text x="0" y="0" font-family="Virgil, Segoe UI Emoji" font-size="20px" fill="#1e1e1e" text-anchor="start" style="white-space: pre;" direction="ltr" dominant-baseline="text-before-edge">year1</text></g><g transform="translate(87.09742398283447 356.33338928222656) rotate(89.19275751076984 19.343955993652344 10)"><text x="0" y="0" font-family="Virgil, Segoe UI Emoji" font-size="16px" fill="#1e1e1e" text-anchor="start" style="white-space: pre;" direction="ltr" dominant-baseline="text-before-edge">... ....</text></g><g stroke-linecap="round"><g transform="translate(45.108066988205564 404.33335876464844) rotate(0 0.3571831643581618 39.52400834965982)"><path d="M-0.82 -0.85 C-0.55 12.49, 1.29 65.57, 1.54 78.93 M0.95 1.32 C1.15 14.87, 1.22 66.74, 1.04 79.9" stroke="#1e1e1e" stroke-width="1" fill="none"></path></g></g><mask></mask><g transform="translate(119.76404995939697 553.9999847412112) rotate(89.19275751076984 19.343955993652344 10)"><text x="0" y="0" font-family="Virgil, Segoe UI Emoji" font-size="16px" fill="#1e1e1e" text-anchor="start" style="white-space: pre;" direction="ltr" dominant-baseline="text-before-edge">... ....</text></g></svg>